<?xml version="1.0" encoding="UTF-8" standalone="no"?>
<!-- Created with Inkscape (http://www.inkscape.org/) -->

<svg
   width="512"
   height="512"
   viewBox="0 0 512 512"
   version="1.1"
   id="svg5"
   xmlns="http://www.w3.org/2000/svg"
   xmlns:svg="http://www.w3.org/2000/svg">
  <defs
     id="defs2">
    <rect
       x="87.541802"
       y="440.16345"
       width="418.89161"
       height="370.6209"
       id="rect13269" />
    <rect
       x="58.906633"
       y="304.35094"
       width="567.79449"
       height="285.53354"
       id="rect10275" />
    <rect
       x="87.541801"
       y="440.16345"
       width="418.8916"
       height="370.62091"
       id="rect13269-0" />
  </defs>
  <g
     id="layer1"
     style="display:inline;fill:#ffffff"
     transform="translate(-2.1363004,13.529903)">
    <g
       transform="translate(0,-19.51234)"
       id="text10273"
       style="font-size:40px;line-height:1.25;white-space:pre;shape-inside:url(#rect10275)" />
    <g
       aria-label="&lt;/&gt; "
       transform="translate(-64.633667,77.847234)"
       id="text913"
       style="font-weight:800;font-size:260px;line-height:1.25;font-family:'JetBrains Mono';-inkscape-font-specification:'JetBrains Mono Ultra-Bold';white-space:pre">
      <path
         d="m 258.01173,276.41085 11.7,-31.72 -141.7,-63.7 v -37.18 l 119.6,-54.339998 v 35.359998 l -71.76,31.46 q -5.2,2.34 -10.92,3.9 -5.72,1.56 -9.1,2.08 3.38,0.52 9.1,2.08 5.72,1.3 10.92,3.64 l 105.04,46.28 66.82,-182.259998 h 40.3 l -16.38,44.2 146.38,67.339998 v 37.18 l -119.6,54.34 v -35.36 l 71.76,-31.46 q 5.2,-2.34 10.92,-3.9 5.72,-1.56 9.1,-2.08 -3.38,-0.52 -9.1,-1.82 -5.72,-1.56 -10.92,-3.9 l -109.72,-49.66 -62.14,169.52 z"
         id="path2897" />
    </g>
    <g
       aria-label="&lt;/&gt; "
       transform="translate(-64.633667,77.847234)"
       id="text559"
       style="font-weight:800;font-size:260px;line-height:1.25;font-family:'JetBrains Mono';-inkscape-font-specification:'JetBrains Mono Ultra-Bold';white-space:pre">
      <path
         d="m 258.01173,276.41085 11.7,-31.72 -141.7,-63.7 v -37.18 l 119.6,-54.339998 v 35.359998 l -71.76,31.46 q -5.2,2.34 -10.92,3.9 -5.72,1.56 -9.1,2.08 3.38,0.52 9.1,2.08 5.72,1.3 10.92,3.64 l 105.04,46.28 66.82,-182.259998 h 40.3 l -16.38,44.2 146.38,67.339998 v 37.18 l -119.6,54.34 v -35.36 l 71.76,-31.46 q 5.2,-2.34 10.92,-3.9 5.72,-1.56 9.1,-2.08 -3.38,-0.52 -9.1,-1.82 -5.72,-1.56 -10.92,-3.9 l -109.72,-49.66 -62.14,169.52 z"
         id="path2900" />
    </g>
    <g
       aria-label="&lt;/&gt; "
       transform="translate(-64.633667,77.847234)"
       id="text691"
       style="font-weight:800;font-size:260px;line-height:1.25;font-family:'JetBrains Mono';-inkscape-font-specification:'JetBrains Mono Ultra-Bold';white-space:pre">
      <path
         d="m 258.01173,276.41085 11.7,-31.72 -141.7,-63.7 v -37.18 l 119.6,-54.339998 v 35.359998 l -71.76,31.46 q -5.2,2.34 -10.92,3.9 -5.72,1.56 -9.1,2.08 3.38,0.52 9.1,2.08 5.72,1.3 10.92,3.64 l 105.04,46.28 66.82,-182.259998 h 40.3 l -16.38,44.2 146.38,67.339998 v 37.18 l -119.6,54.34 v -35.36 l 71.76,-31.46 q 5.2,-2.34 10.92,-3.9 5.72,-1.56 9.1,-2.08 -3.38,-0.52 -9.1,-1.82 -5.72,-1.56 -10.92,-3.9 l -109.72,-49.66 -62.14,169.52 z"
         id="path2903" />
    </g>
    <g
       aria-label="&lt;/&gt; "
       transform="translate(-64.633667,77.847234)"
       id="text695"
       style="font-weight:800;font-size:260px;line-height:1.25;font-family:'JetBrains Mono';-inkscape-font-specification:'JetBrains Mono Ultra-Bold';white-space:pre">
      <path
         d="m 258.01173,276.41085 11.7,-31.72 -141.7,-63.7 v -37.18 l 119.6,-54.339998 v 35.359998 l -71.76,31.46 q -5.2,2.34 -10.92,3.9 -5.72,1.56 -9.1,2.08 3.38,0.52 9.1,2.08 5.72,1.3 10.92,3.64 l 105.04,46.28 66.82,-182.259998 h 40.3 l -16.38,44.2 146.38,67.339998 v 37.18 l -119.6,54.34 v -35.36 l 71.76,-31.46 q 5.2,-2.34 10.92,-3.9 5.72,-1.56 9.1,-2.08 -3.38,-0.52 -9.1,-1.82 -5.72,-1.56 -10.92,-3.9 l -109.72,-49.66 -62.14,169.52 z"
         id="path2906" />
    </g>
  </g>
</svg>
