<?xml version="1.0" encoding="UTF-8" standalone="no"?>
<!-- Created with Inkscape (http://www.inkscape.org/) -->

<svg
   width="250.0px"
   height="250.0px"
   viewBox="0 0 250.0 250.0"
   version="1.1"
   id="SVGRoot"
   xmlns="http://www.w3.org/2000/svg"
   xmlns:svg="http://www.w3.org/2000/svg">
  <defs
     id="defs525" />
  <g
     id="layer1">
    <path
       d="M 124.98855,0 C 55.963985,0 0,57.38024 0,128.16732 c 0,56.62495 35.812972,104.65818 85.484576,121.6134 6.253987,1.17232 8.533062,-2.7852 8.533062,-6.18412 0,-3.03695 -0.107631,-11.10151 -0.168674,-21.79393 -34.769319,7.74196 -42.1053,-17.18342 -42.1053,-17.18342 -5.686174,-14.7994 -13.881639,-18.74122 -13.881639,-18.74122 -11.349341,-7.95442 0.859431,-7.79703 0.859431,-7.79703 12.546425,0.91262 19.145792,13.2101 19.145792,13.2101 11.149805,19.58308 29.259584,13.92608 36.380786,10.65309 1.135681,-8.28482 4.358614,-13.93401 7.934506,-17.13618 -27.755562,-3.23366 -56.938503,-14.23291 -56.938503,-63.34407 0,-13.98909 4.872795,-25.428877 12.868724,-34.390418 -1.289166,-3.241537 -5.578722,-16.270682 1.220108,-33.918321 0,0 10.497567,-3.446112 34.37796,13.139334 9.968091,-2.840261 20.665171,-4.264357 31.293221,-4.311549 10.61265,0.04956 21.30971,1.471288 31.29313,4.311549 23.86511,-16.585446 34.33965,-13.139334 34.33965,-13.139334 6.82185,17.647639 2.53229,30.676784 1.24314,33.918321 8.0113,8.961541 12.85335,20.401328 12.85335,34.390418 0,49.23699 -29.22897,60.07105 -57.07664,63.24176 4.48909,3.95758 8.48702,11.77818 8.48702,23.73731 0,17.12836 -0.15368,30.95212 -0.15368,35.15359 0,3.43043 2.24839,7.41939 8.59453,6.16841 C 214.21778,232.7783 250,184.77652 250,128.16732 250,57.38024 194.02838,0 124.98848,0"
       style="fill:#1b1817;fill-opacity:1;fill-rule:evenodd;stroke:none;stroke-width:7.77011"
       id="path89" />
  </g>
</svg>
