<?xml version="1.0" encoding="UTF-8" standalone="no"?>
<!-- Created with Inkscape (http://www.inkscape.org/) -->

<svg
   width="512"
   height="512"
   viewBox="0 0 512 512"
   version="1.1"
   id="svg5"
   xmlns="http://www.w3.org/2000/svg"
   xmlns:svg="http://www.w3.org/2000/svg">
  <defs
     id="defs2">
    <rect
       x="87.541802"
       y="440.16345"
       width="418.89161"
       height="370.6209"
       id="rect13269" />
    <rect
       x="58.906633"
       y="304.35094"
       width="567.79449"
       height="285.53354"
       id="rect10275" />
    <rect
       x="87.541801"
       y="440.16345"
       width="418.8916"
       height="370.62091"
       id="rect13269-0" />
  </defs>
  <g
     id="layer1"
     style="display:inline">
    <g
       transform="translate(0,-19.51234)"
       id="text10273"
       style="font-size:40px;line-height:1.25;white-space:pre;shape-inside:url(#rect10275)" />
    <g
       aria-label="&lt;/&gt; "
       transform="translate(-64.633667,77.847234)"
       id="text913"
       style="font-weight:800;font-size:260px;line-height:1.25;font-family:'JetBrains Mono';-inkscape-font-specification:'JetBrains Mono Ultra-Bold';white-space:pre;fill:#4b0082">
      <path
         d="m 258.01173,276.41085 11.7,-31.72 -141.7,-63.7 v -37.18 l 119.6,-54.339998 v 35.359998 l -71.76,31.46 q -5.2,2.34 -10.92,3.9 -5.72,1.56 -9.1,2.08 3.38,0.52 9.1,2.08 5.72,1.3 10.92,3.64 l 105.04,46.28 66.82,-182.259998 h 40.3 l -16.38,44.2 146.38,67.339998 v 37.18 l -119.6,54.34 v -35.36 l 71.76,-31.46 q 5.2,-2.34 10.92,-3.9 5.72,-1.56 9.1,-2.08 -3.38,-0.52 -9.1,-1.82 -5.72,-1.56 -10.92,-3.9 l -109.72,-49.66 -62.14,169.52 z"
         id="path2785" />
    </g>
    <g
       aria-label="&lt;/&gt; "
       transform="translate(-64.633667,77.847234)"
       id="text196"
       style="font-weight:800;font-size:260px;line-height:1.25;font-family:'JetBrains Mono';-inkscape-font-specification:'JetBrains Mono Ultra-Bold';white-space:pre;fill:#4b0082">
      <path
         d="m 258.01173,276.41085 11.7,-31.72 -141.7,-63.7 v -37.18 l 119.6,-54.339998 v 35.359998 l -71.76,31.46 q -5.2,2.34 -10.92,3.9 -5.72,1.56 -9.1,2.08 3.38,0.52 9.1,2.08 5.72,1.3 10.92,3.64 l 105.04,46.28 66.82,-182.259998 h 40.3 l -16.38,44.2 146.38,67.339998 v 37.18 l -119.6,54.34 v -35.36 l 71.76,-31.46 q 5.2,-2.34 10.92,-3.9 5.72,-1.56 9.1,-2.08 -3.38,-0.52 -9.1,-1.82 -5.72,-1.56 -10.92,-3.9 l -109.72,-49.66 -62.14,169.52 z"
         id="path2788" />
    </g>
    <g
       aria-label="&lt;/&gt; "
       transform="translate(-64.633667,77.847234)"
       id="text263"
       style="font-weight:800;font-size:260px;line-height:1.25;font-family:'JetBrains Mono';-inkscape-font-specification:'JetBrains Mono Ultra-Bold';white-space:pre;fill:#4b0082">
      <path
         d="m 258.01173,276.41085 11.7,-31.72 -141.7,-63.7 v -37.18 l 119.6,-54.339998 v 35.359998 l -71.76,31.46 q -5.2,2.34 -10.92,3.9 -5.72,1.56 -9.1,2.08 3.38,0.52 9.1,2.08 5.72,1.3 10.92,3.64 l 105.04,46.28 66.82,-182.259998 h 40.3 l -16.38,44.2 146.38,67.339998 v 37.18 l -119.6,54.34 v -35.36 l 71.76,-31.46 q 5.2,-2.34 10.92,-3.9 5.72,-1.56 9.1,-2.08 -3.38,-0.52 -9.1,-1.82 -5.72,-1.56 -10.92,-3.9 l -109.72,-49.66 -62.14,169.52 z"
         id="path2791" />
    </g>
    <g
       aria-label="&lt;/&gt; "
       transform="translate(-64.633667,77.847234)"
       id="text267"
       style="font-weight:800;font-size:260px;line-height:1.25;font-family:'JetBrains Mono';-inkscape-font-specification:'JetBrains Mono Ultra-Bold';white-space:pre;fill:#4b0082">
      <path
         d="m 258.01173,276.41085 11.7,-31.72 -141.7,-63.7 v -37.18 l 119.6,-54.339998 v 35.359998 l -71.76,31.46 q -5.2,2.34 -10.92,3.9 -5.72,1.56 -9.1,2.08 3.38,0.52 9.1,2.08 5.72,1.3 10.92,3.64 l 105.04,46.28 66.82,-182.259998 h 40.3 l -16.38,44.2 146.38,67.339998 v 37.18 l -119.6,54.34 v -35.36 l 71.76,-31.46 q 5.2,-2.34 10.92,-3.9 5.72,-1.56 9.1,-2.08 -3.38,-0.52 -9.1,-1.82 -5.72,-1.56 -10.92,-3.9 l -109.72,-49.66 -62.14,169.52 z"
         id="path2794" />
    </g>
  </g>
  <g
     id="layer3">
    <g
       aria-label="amiria703"
       transform="matrix(1.0539879,0,0,1.1483194,14.114374,-138.49289)"
       id="text13267"
       style="font-style:italic;font-size:48px;line-height:1.25;font-family:'Lucida Handwriting';-inkscape-font-specification:'Lucida Handwriting Italic';white-space:pre;shape-inside:url(#rect13269-0);display:inline;fill:#4b0082">
      <path
         d="m 113.83789,466.62291 q -3,6.21093 -7.40625,10.57031 -4.38281,4.33594 -7.640624,4.33594 -2.484375,0 -3.984375,-2.20313 -1.476563,-2.22656 -1.476563,-5.90625 0,-7.33594 4.429688,-12.91406 4.453124,-5.57813 10.289064,-5.57813 3.53906,0 7.66406,2.20313 0.60938,-2.17969 4.96875,-2.17969 0.28125,0 0.91406,0.0234 -1.33593,2.03906 -2.03906,5.57812 l -0.39844,1.99219 q -0.67968,3.32813 -0.67968,7.78125 0,5.13281 2.39062,5.13281 2.53125,0 6.91406,-4.21875 4.40625,-4.24218 8.64844,-10.78125 l 1.82813,1.26563 q -4.33594,7.73437 -9.91407,12.91406 -5.57812,5.15625 -9.58593,5.15625 -5.0625,0 -5.0625,-8.4375 0,-1.75781 0.14062,-4.73437 z m 1.10156,-5.60157 q -4.92187,-3.21093 -8.17968,-3.21093 -3.53907,0 -6.11719,4.3125 -2.578127,4.28906 -2.578127,10.19531 0,4.73437 3.093747,4.73437 3.35157,0 12.82032,-14.71875 0.11718,-0.1875 0.96093,-1.3125 z"
         id="path2765" />
      <path
         d="m 139.54883,472.71666 q 8.4375,-17.8125 14.90625,-17.8125 2.83594,0 2.83594,4.10156 0,1.75781 -1.21875,7.92187 l -1.40625,7.10157 q 4.10156,-8.625 8.55468,-13.85157 4.45313,-5.25 7.6875,-5.25 3.5625,0 3.5625,4.17188 0,1.5 -1.05468,6.86719 l -0.72657,3.65625 q -0.65625,3.30468 -0.65625,4.89843 0,2.8125 1.99219,2.8125 4.5,0 13.82813,-16.73437 l 1.96875,1.10156 q -10.17188,19.82813 -17.76563,19.82813 -4.85156,0 -4.85156,-6.32813 0,-2.10937 0.9375,-6.77344 l 0.65625,-3.23437 q 0.65625,-3.28125 0.65625,-4.07813 0,-1.00781 -1.03125,-1.00781 -2.53125,0 -9.07031,10.05469 -5.92969,9.16406 -5.92969,10.47656 0,0.14063 0.0938,0.49219 -0.32813,0.0703 -1.14844,0.30469 -0.35156,0.11718 -1.05469,0.11718 -2.17968,0 -2.17968,-2.08593 0,-0.63282 0.70312,-3.82032 0.25781,-1.14843 0.51563,-2.46093 l 0.98437,-4.96875 q 1.07813,-5.36719 1.07813,-6.44532 0,-1.57031 -1.14844,-1.57031 -2.53125,0 -7.45313,9.07031 -4.89843,9 -4.89843,10.73438 0,0.49219 0.375,0.96094 -1.28907,0.5625 -2.36719,0.5625 -2.4375,0 -2.4375,-2.625 0,-0.32813 0.70312,-6.82032 l 0.53907,-4.99218 q 0.28125,-2.625 0.28125,-4.85157 0,-2.8125 -1.14844,-4.125 2.71875,-0.98437 3.84375,-0.98437 2.0625,0 2.0625,2.4375 0,0.86719 -0.5625,6.44531 z"
         id="path2767" />
      <path
         d="m 211.12695,461.77134 q -5.29687,9.28125 -10.71093,14.53125 -5.41407,5.22657 -9.72657,5.22657 -2.625,0 -4.24218,-1.71094 -1.59375,-1.71094 -1.59375,-4.5 0,-1.05469 0.46875,-3.35156 l 0.51562,-2.57813 q 1.14844,-5.57812 1.14844,-7.82812 0,-1.33594 -0.79688,-2.17969 3.04688,-0.70313 3.82032,-0.70313 1.73437,0 1.73437,2.4375 0,1.80469 -0.67969,5.17969 l -0.91406,4.57031 q -0.67969,3.30469 -0.67969,4.28907 0,2.90625 2.46094,2.90625 2.92969,0 7.80469,-4.92188 4.875,-4.94531 9.44531,-12.51562 z m -20.85937,-11.8125 0.32812,0.0234 q 1.57032,-0.0703 4.5,-1.57031 2.95313,-1.52344 4.61719,-3.09375 -1.03125,3.23437 -3.65625,5.41406 -3.98437,3.32813 -5.39062,3.32813 -0.9375,0 -0.9375,-1.14844 0,-1.64063 0.53906,-2.95313 z"
         id="path2769" />
      <path
         d="m 210.30664,480.77916 q -1.59375,0.75 -2.55469,0.75 -2.39062,0 -2.39062,-2.10938 0,-1.07812 0.84375,-5.36719 l 1.17187,-5.83593 q 1.07813,-5.20313 1.07813,-7.71094 0,-1.35938 -0.77344,-2.27344 2.46094,-0.84375 4.00781,-0.84375 1.64063,0 1.64063,2.08594 0,1.28906 -1.17188,6.77344 l -1.33593,6.82031 q 4.42968,-8.60156 8.90625,-13.35938 4.5,-4.78125 8.15625,-4.78125 1.28906,0 2.22656,0.75 0.9375,0.72657 0.9375,1.78125 0,1.64063 -3.5625,4.35938 -0.89063,-1.85156 -2.53125,-1.85156 -2.97656,0 -7.59375,6.32812 -2.85938,3.9375 -4.96875,8.13281 -2.10938,4.17188 -2.10938,5.95313 z"
         id="path2771" />
      <path
         d="m 258.37695,461.77134 q -5.29687,9.28125 -10.71093,14.53125 -5.41407,5.22657 -9.72657,5.22657 -2.625,0 -4.24218,-1.71094 -1.59375,-1.71094 -1.59375,-4.5 0,-1.05469 0.46875,-3.35156 l 0.51562,-2.57813 q 1.14844,-5.57812 1.14844,-7.82812 0,-1.33594 -0.79688,-2.17969 3.04688,-0.70313 3.82032,-0.70313 1.73437,0 1.73437,2.4375 0,1.80469 -0.67969,5.17969 l -0.91406,4.57031 q -0.67969,3.30469 -0.67969,4.28907 0,2.90625 2.46094,2.90625 2.92969,0 7.80469,-4.92188 4.875,-4.94531 9.44531,-12.51562 z m -20.85937,-11.8125 0.32812,0.0234 q 1.57032,-0.0703 4.5,-1.57031 2.95313,-1.52344 4.61719,-3.09375 -1.03125,3.23437 -3.65625,5.41406 -3.98437,3.32813 -5.39062,3.32813 -0.9375,0 -0.9375,-1.14844 0,-1.64063 0.53906,-2.95313 z"
         id="path2773" />
      <path
         d="m 271.94727,466.62291 q -3,6.21093 -7.40625,10.57031 -4.38282,4.33594 -7.64063,4.33594 -2.48437,0 -3.98437,-2.20313 -1.47657,-2.22656 -1.47657,-5.90625 0,-7.33594 4.42969,-12.91406 4.45313,-5.57813 10.28906,-5.57813 3.53907,0 7.66407,2.20313 0.60937,-2.17969 4.96875,-2.17969 0.28125,0 0.91406,0.0234 -1.33594,2.03906 -2.03906,5.57812 l -0.39844,1.99219 q -0.67969,3.32813 -0.67969,7.78125 0,5.13281 2.39063,5.13281 2.53125,0 6.91406,-4.21875 4.40625,-4.24218 8.64844,-10.78125 l 1.82812,1.26563 q -4.33594,7.73437 -9.91406,12.91406 -5.57813,5.15625 -9.58594,5.15625 -5.0625,0 -5.0625,-8.4375 0,-1.75781 0.14063,-4.73437 z m 1.10156,-5.60157 q -4.92188,-3.21093 -8.17969,-3.21093 -3.53906,0 -6.11719,4.3125 -2.57812,4.28906 -2.57812,10.19531 0,4.73437 3.09375,4.73437 3.35156,0 12.82031,-14.71875 0.11719,-0.1875 0.96094,-1.3125 z"
         id="path2775" />
      <path
         d="m 317.22852,446.25572 -0.89063,4.47656 q -7.52344,6.53906 -12.30469,14.76563 -4.78125,8.20312 -4.78125,14.57812 0,1.42969 0.35157,3.14063 -0.70313,0.1875 -1.3125,0.1875 -4.57032,0 -4.57032,-3.1875 0,-2.48438 2.27344,-7.78125 2.27344,-5.32032 5.03906,-9.23438 5.55469,-7.89844 11.50782,-12.46875 h -8.55469 l -1.33594,0.0234 q -5.17969,0 -6.79687,-0.39844 -1.59375,-0.39844 -1.59375,-1.6875 0,-0.49219 0.14062,-1.17187 0.0938,-0.375 0.23438,-1.03125 l 0.25781,-1.38282 q 1.75781,1.10157 5.25,1.10157 l 1.52344,-0.0234 3.23437,0.0469 3.70313,0.0469 z"
         id="path2777" />
      <path
         d="m 331.29102,481.81041 q -4.59375,0 -7.33594,-3.44532 -2.71875,-3.46875 -2.71875,-9.30468 0,-9.58594 5.41406,-16.61719 5.4375,-7.05469 12.84375,-7.05469 4.82813,0 7.57031,3.44531 2.74219,3.44532 2.74219,9.49219 0,9.58594 -5.48437,16.54688 -5.48438,6.9375 -13.03125,6.9375 z m 1.92187,-2.60157 q 4.54688,0 8.01563,-5.95312 3.46875,-5.97656 3.46875,-13.78125 0,-11.4375 -7.03125,-11.4375 -4.54688,0 -7.94532,5.92969 -3.39843,5.90625 -3.39843,13.80468 0,11.4375 6.89062,11.4375 z"
         id="path2779" />
      <path
         d="m 360.4707,464.16197 q 1.47657,-3.46875 4.28907,-3.46875 1.03125,0 2.46093,0.32812 7.17188,-2.27343 7.17188,-7.92187 0,-2.17969 -1.59375,-3.5625 -1.57031,-1.40625 -4.05469,-1.40625 -3.72656,0 -6.39844,3.23437 l -0.0234,-0.91406 q 0,-2.41406 2.10937,-3.72656 2.13281,-1.33594 5.97656,-1.33594 3.96094,0 6.30469,1.875 2.36719,1.85156 2.36719,4.99219 0,5.97656 -8.03906,9.67969 7.17187,2.01562 7.17187,8.46093 0,4.89844 -3.9375,8.15625 -3.9375,3.25782 -9.84375,3.25782 -8.95312,0 -8.95312,-4.75782 0,-0.53906 0.11718,-1.66406 3.49219,3.53906 8.90625,3.53906 3.79688,0 6.375,-2.25 2.57813,-2.27343 2.57813,-5.60156 0,-2.55469 -1.52344,-3.96094 -1.52344,-1.40625 -5.27344,-2.32031 -1.42968,0.39844 -2.64843,0.39844 -2.01563,0 -3.53907,-1.03125 z"
         id="path2781" />
    </g>
  </g>
  <g
     id="layer2" />
</svg>
